# xmcd
#
# Track frame offsets:
#	150
#	15925
#	35994
#	47925
#	60572
#	73991
#	88457
#	101914
#	128453
#	145664
#	160685
#	182809
#	201064
#	218269
#	239684
#	256490
#	273337
#	289307
#
# Disc length: 4070 seconds
#
# Revision: 0
# Processed by: cddbd v1.5.2PL0 Copyright (c) Steve Scherf et al.
# Submitted via: EasyCDDAExtractor 11.9.9.666
#
DISCID=120fe412
DTITLE=Paypah Stackaz - Performance Audio
DYEAR=2008
DGENRE=Rap
TTITLE0=Catch Me In Tha Club
TTITLE1=Wanted
TTITLE2=U Can't Stop This
TTITLE3=Anger in my Eyes
TTITLE4=Disappear
TTITLE5=When We Do It
TTITLE6=It Takes A Theif
TTITLE7=Helltown's Click
TTITLE8=Crac Crac
TTITLE9=Won't Let Me Out
TTITLE10=Tha Message
TTITLE11=Keep Stackin
TTITLE12=How Itz Done
TTITLE13=Hustle'n
TTITLE14=We Right Here
TTITLE15=Mobbin Strong
TTITLE16=Whole Fam Blazen
TTITLE17=Take Control
EXTD=
EXTT0=
EXTT1=
EXTT2=
EXTT3=
EXTT4=
EXTT5=
EXTT6=
EXTT7=
EXTT8=
EXTT9=
EXTT10=
EXTT11=
EXTT12=
EXTT13=
EXTT14=
EXTT15=
EXTT16=
EXTT17=
PLAYORDER=
